<svg xmlns="http://www.w3.org/2000/svg" xmlns:xlink="http://www.w3.org/1999/xlink" version="1.1" viewBox="0 0 80 80">
<g id="surface1">
<path style=" stroke:none;fill-rule:nonzero;fill:rgb(255%,255%,255%);fill-opacity:1;" d="M 75.433594 42.582031 C 74.742188 42.5 74.207031 42.246094 73.828125 41.8125 C 73.453125 41.382812 73.265625 40.8125 73.265625 40.097656 C 73.265625 39.320312 73.542969 38.699219 74.097656 38.230469 C 74.652344 37.765625 75.394531 37.535156 76.328125 37.535156 L 76.957031 37.535156 C 77.566406 37.535156 78.101562 37.640625 78.566406 37.859375 C 79.027344 38.078125 79.382812 38.386719 79.628906 38.785156 C 79.875 39.183594 80 39.648438 80 40.171875 C 80 40.871094 79.804688 41.429688 79.414062 41.847656 C 79.027344 42.269531 78.492188 42.511719 77.804688 42.582031 L 77.804688 41.710938 C 78.324219 41.636719 78.703125 41.472656 78.9375 41.222656 C 79.171875 40.972656 79.289062 40.625 79.289062 40.171875 C 79.289062 39.621094 79.085938 39.1875 78.675781 38.871094 C 78.269531 38.558594 77.6875 38.402344 76.933594 38.402344 L 76.300781 38.402344 C 75.589844 38.402344 75.023438 38.550781 74.601562 38.847656 C 74.183594 39.144531 73.972656 39.5625 73.972656 40.097656 C 73.972656 40.578125 74.078125 40.945312 74.296875 41.199219 C 74.515625 41.457031 74.894531 41.628906 75.433594 41.710938 Z M 75.433594 42.582031 "/>
<path style=" stroke:none;fill-rule:nonzero;fill:rgb(255%,255%,255%);fill-opacity:1;" d="M 73.511719 43.382812 L 79.988281 44.40625 L 79.652344 46.523438 C 79.539062 47.226562 79.3125 47.730469 78.964844 48.039062 C 78.617188 48.347656 78.160156 48.457031 77.589844 48.367188 C 77.289062 48.320312 77.03125 48.191406 76.824219 47.984375 C 76.621094 47.773438 76.480469 47.511719 76.398438 47.195312 C 76.246094 47.527344 76.015625 47.773438 75.707031 47.933594 C 75.402344 48.09375 75.058594 48.144531 74.679688 48.085938 C 74.097656 47.992188 73.671875 47.730469 73.398438 47.304688 C 73.128906 46.875 73.046875 46.316406 73.15625 45.628906 Z M 76.402344 44.714844 L 74.074219 44.347656 L 73.851562 45.757812 C 73.789062 46.152344 73.839844 46.480469 74.007812 46.742188 C 74.179688 47.007812 74.445312 47.167969 74.808594 47.226562 C 75.585938 47.347656 76.042969 46.988281 76.179688 46.136719 Z M 77.089844 44.824219 L 76.886719 46.113281 C 76.824219 46.488281 76.871094 46.800781 77.023438 47.050781 C 77.175781 47.308594 77.410156 47.460938 77.730469 47.511719 C 78.085938 47.566406 78.359375 47.503906 78.554688 47.320312 C 78.75 47.140625 78.882812 46.835938 78.949219 46.414062 L 79.148438 45.148438 Z M 77.089844 44.824219 "/>
<path style=" stroke:none;fill-rule:nonzero;fill:rgb(255%,255%,255%);fill-opacity:1;" d="M 71.597656 51.550781 L 74.027344 52.339844 L 74.496094 50.902344 L 72.484375 48.824219 L 72.769531 47.945312 L 74.957031 50.257812 C 75.535156 49.554688 76.230469 49.335938 77.046875 49.601562 C 77.640625 49.792969 78.039062 50.136719 78.242188 50.632812 C 78.445312 51.132812 78.433594 51.726562 78.210938 52.421875 L 77.566406 54.40625 L 71.328125 52.378906 Z M 76.78125 50.421875 C 76.402344 50.300781 76.0625 50.320312 75.757812 50.480469 C 75.453125 50.640625 75.230469 50.933594 75.089844 51.351562 L 74.699219 52.558594 L 77.15625 53.359375 L 77.539062 52.1875 C 77.683594 51.742188 77.6875 51.367188 77.554688 51.0625 C 77.417969 50.761719 77.160156 50.546875 76.78125 50.421875 Z M 76.78125 50.421875 "/>
<path style=" stroke:none;fill-rule:nonzero;fill:rgb(255%,255%,255%);fill-opacity:1;" d="M 73.613281 58.640625 C 73.921875 58.800781 74.226562 58.8125 74.523438 58.675781 C 74.824219 58.546875 75.078125 58.277344 75.285156 57.867188 C 75.460938 57.523438 75.511719 57.1875 75.441406 56.859375 C 75.371094 56.535156 75.195312 56.300781 74.917969 56.15625 L 75.308594 55.386719 C 75.621094 55.546875 75.855469 55.773438 76.015625 56.066406 C 76.175781 56.363281 76.246094 56.699219 76.226562 57.070312 C 76.210938 57.449219 76.109375 57.820312 75.917969 58.1875 C 75.585938 58.84375 75.183594 59.273438 74.703125 59.484375 C 74.226562 59.699219 73.730469 59.671875 73.207031 59.40625 C 72.9375 59.269531 72.734375 59.058594 72.597656 58.78125 C 72.457031 58.5 72.402344 58.179688 72.425781 57.820312 C 71.84375 58.390625 71.210938 58.5 70.53125 58.152344 C 70.007812 57.886719 69.691406 57.476562 69.582031 56.929688 C 69.472656 56.382812 69.585938 55.785156 69.917969 55.132812 C 70.113281 54.742188 70.363281 54.425781 70.660156 54.175781 C 70.960938 53.929688 71.285156 53.785156 71.628906 53.738281 C 71.972656 53.691406 72.320312 53.757812 72.667969 53.9375 L 72.277344 54.707031 C 71.96875 54.550781 71.648438 54.539062 71.320312 54.679688 C 70.992188 54.816406 70.734375 55.074219 70.542969 55.449219 C 70.328125 55.871094 70.257812 56.253906 70.324219 56.601562 C 70.390625 56.953125 70.585938 57.210938 70.90625 57.375 C 71.589844 57.722656 72.15625 57.476562 72.601562 56.636719 L 72.96875 55.914062 L 73.605469 56.238281 L 73.238281 56.953125 C 73.046875 57.347656 72.984375 57.691406 73.050781 57.976562 C 73.117188 58.261719 73.304688 58.484375 73.613281 58.640625 Z M 73.613281 58.640625 "/>
<path style=" stroke:none;fill-rule:nonzero;fill:rgb(255%,255%,255%);fill-opacity:1;" d="M 67.792969 61.839844 L 69.40625 59.617188 L 68.386719 58.113281 L 68.910156 57.394531 L 72.742188 63.273438 L 72.296875 63.882812 L 65.519531 62.058594 L 66.039062 61.34375 Z M 69.828125 60.25 L 68.519531 62.050781 L 71.65625 62.949219 Z M 69.828125 60.25 "/>
<path style=" stroke:none;fill-rule:nonzero;fill:rgb(255%,255%,255%);fill-opacity:1;" d="M 66.125 69.664062 L 67.617188 68.175781 L 63.484375 64.042969 L 64.09375 63.433594 L 68.226562 67.566406 L 69.710938 66.078125 L 70.214844 66.582031 L 66.628906 70.167969 Z M 66.125 69.664062 "/>
<path style=" stroke:none;fill-rule:nonzero;fill:rgb(255%,255%,255%);fill-opacity:1;" d="M 62.917969 69.675781 L 61.597656 70.636719 C 61.039062 71.03125 60.503906 71.203125 59.992188 71.152344 C 59.480469 71.101562 59.050781 70.835938 58.707031 70.359375 C 58.359375 69.882812 58.238281 69.386719 58.34375 68.875 C 58.449219 68.363281 58.773438 67.90625 59.304688 67.503906 L 61.335938 66.027344 L 65.1875 71.332031 L 64.488281 71.839844 Z M 62.5 69.101562 L 61.050781 67.109375 L 59.773438 68.039062 C 59.425781 68.289062 59.222656 68.578125 59.164062 68.902344 C 59.105469 69.226562 59.1875 69.546875 59.414062 69.855469 C 59.628906 70.15625 59.894531 70.324219 60.207031 70.359375 C 60.515625 70.398438 60.84375 70.296875 61.191406 70.050781 Z M 62.5 69.101562 "/>
<path style=" stroke:none;fill-rule:nonzero;fill:rgb(255%,255%,255%);fill-opacity:1;" d="M 53.929688 72.9375 C 53.6875 72.285156 53.671875 71.691406 53.886719 71.15625 C 54.097656 70.628906 54.519531 70.199219 55.15625 69.875 C 55.847656 69.523438 56.527344 69.488281 57.199219 69.773438 C 57.863281 70.054688 58.410156 70.613281 58.832031 71.441406 L 59.117188 72.003906 C 59.394531 72.546875 59.542969 73.074219 59.558594 73.582031 C 59.574219 74.09375 59.457031 74.550781 59.214844 74.949219 C 58.972656 75.355469 58.617188 75.675781 58.148438 75.914062 C 57.527344 76.230469 56.941406 76.308594 56.390625 76.152344 C 55.839844 76 55.378906 75.628906 55.003906 75.050781 L 55.777344 74.65625 C 56.082031 75.085938 56.398438 75.347656 56.730469 75.441406 C 57.058594 75.539062 57.425781 75.484375 57.824219 75.28125 C 58.316406 75.027344 58.609375 74.648438 58.707031 74.144531 C 58.800781 73.636719 58.675781 73.050781 58.332031 72.378906 L 58.042969 71.8125 C 57.722656 71.179688 57.332031 70.742188 56.875 70.5 C 56.421875 70.261719 55.957031 70.265625 55.480469 70.507812 C 55.050781 70.722656 54.773438 70.988281 54.644531 71.296875 C 54.511719 71.609375 54.53125 72.023438 54.703125 72.542969 Z M 53.929688 72.9375 "/>
<path style=" stroke:none;fill-rule:nonzero;fill:rgb(255%,255%,255%);fill-opacity:1;" d="M 49.21875 72.320312 L 50.007812 74.75 L 51.449219 74.28125 L 51.945312 71.433594 L 52.824219 71.148438 L 52.242188 74.273438 C 53.148438 74.332031 53.734375 74.765625 54 75.582031 C 54.195312 76.175781 54.148438 76.699219 53.867188 77.15625 C 53.585938 77.613281 53.09375 77.957031 52.402344 78.179688 L 50.417969 78.824219 L 48.390625 72.589844 Z M 53.179688 75.851562 C 53.054688 75.472656 52.839844 75.207031 52.53125 75.054688 C 52.222656 74.90625 51.855469 74.894531 51.433594 75.027344 L 50.226562 75.421875 L 51.027344 77.878906 L 52.195312 77.5 C 52.640625 77.355469 52.945312 77.136719 53.117188 76.851562 C 53.28125 76.5625 53.300781 76.230469 53.179688 75.851562 Z M 53.179688 75.851562 "/>
<path style=" stroke:none;fill-rule:nonzero;fill:rgb(255%,255%,255%);fill-opacity:1;" d="M 37.421875 75.433594 C 37.5 74.742188 37.757812 74.207031 38.191406 73.828125 C 38.621094 73.453125 39.191406 73.265625 39.90625 73.265625 C 40.679688 73.265625 41.300781 73.542969 41.769531 74.097656 C 42.234375 74.652344 42.46875 75.394531 42.46875 76.328125 L 42.46875 76.957031 C 42.46875 77.566406 42.359375 78.101562 42.144531 78.5625 C 41.925781 79.027344 41.617188 79.382812 41.214844 79.628906 C 40.816406 79.875 40.355469 80 39.828125 80 C 39.132812 80 38.574219 79.804688 38.15625 79.414062 C 37.734375 79.027344 37.488281 78.492188 37.421875 77.804688 L 38.289062 77.804688 C 38.363281 78.324219 38.527344 78.703125 38.78125 78.9375 C 39.03125 79.171875 39.378906 79.289062 39.828125 79.289062 C 40.382812 79.289062 40.816406 79.085938 41.132812 78.675781 C 41.445312 78.269531 41.601562 77.6875 41.601562 76.933594 L 41.601562 76.300781 C 41.601562 75.589844 41.449219 75.023438 41.152344 74.601562 C 40.855469 74.183594 40.441406 73.972656 39.90625 73.972656 C 39.425781 73.972656 39.058594 74.078125 38.804688 74.296875 C 38.546875 74.515625 38.375 74.894531 38.289062 75.433594 Z M 37.421875 75.433594 "/>
<path style=" stroke:none;fill-rule:nonzero;fill:rgb(255%,255%,255%);fill-opacity:1;" d="M 36.621094 73.457031 L 35.597656 79.929688 L 33.480469 79.597656 C 32.777344 79.484375 32.269531 79.253906 31.964844 78.910156 C 31.65625 78.5625 31.546875 78.105469 31.636719 77.535156 C 31.683594 77.230469 31.8125 76.976562 32.019531 76.769531 C 32.230469 76.566406 32.492188 76.425781 32.808594 76.34375 C 32.472656 76.191406 32.226562 75.960938 32.070312 75.652344 C 31.910156 75.347656 31.859375 75.003906 31.917969 74.625 C 32.011719 74.042969 32.269531 73.617188 32.699219 73.34375 C 33.128906 73.074219 33.6875 72.992188 34.375 73.097656 Z M 35.289062 76.347656 L 35.65625 74.019531 L 34.246094 73.796875 C 33.851562 73.730469 33.519531 73.785156 33.261719 73.953125 C 32.996094 74.125 32.835938 74.390625 32.777344 74.753906 C 32.65625 75.53125 33.015625 75.988281 33.863281 76.125 Z M 35.179688 77.035156 L 33.890625 76.828125 C 33.515625 76.769531 33.203125 76.816406 32.953125 76.96875 C 32.695312 77.121094 32.542969 77.355469 32.492188 77.675781 C 32.4375 78.03125 32.5 78.304688 32.679688 78.5 C 32.863281 78.695312 33.167969 78.824219 33.589844 78.894531 L 34.851562 79.09375 Z M 35.179688 77.035156 "/>
<path style=" stroke:none;fill-rule:nonzero;fill:rgb(255%,255%,255%);fill-opacity:1;" d="M 28.449219 71.542969 L 27.660156 73.972656 L 29.101562 74.4375 L 31.179688 72.429688 L 32.054688 72.714844 L 29.746094 74.898438 C 30.449219 75.476562 30.667969 76.175781 30.402344 76.992188 C 30.207031 77.585938 29.863281 77.984375 29.371094 78.1875 C 28.871094 78.390625 28.273438 78.378906 27.582031 78.15625 L 25.597656 77.511719 L 27.625 71.273438 Z M 29.578125 76.726562 C 29.703125 76.347656 29.683594 76.007812 29.523438 75.703125 C 29.359375 75.398438 29.070312 75.175781 28.652344 75.035156 L 27.441406 74.644531 L 26.644531 77.101562 L 27.8125 77.480469 C 28.257812 77.625 28.632812 77.632812 28.941406 77.496094 C 29.242188 77.363281 29.457031 77.105469 29.578125 76.726562 Z M 29.578125 76.726562 "/>
<path style=" stroke:none;fill-rule:nonzero;fill:rgb(255%,255%,255%);fill-opacity:1;" d="M 21.359375 73.558594 C 21.203125 73.867188 21.191406 74.171875 21.324219 74.46875 C 21.457031 74.769531 21.726562 75.023438 22.136719 75.230469 C 22.476562 75.40625 22.8125 75.457031 23.144531 75.386719 C 23.46875 75.316406 23.703125 75.140625 23.84375 74.863281 L 24.613281 75.253906 C 24.457031 75.566406 24.230469 75.800781 23.9375 75.960938 C 23.640625 76.121094 23.304688 76.191406 22.929688 76.171875 C 22.554688 76.15625 22.179688 76.050781 21.8125 75.863281 C 21.160156 75.53125 20.726562 75.125 20.515625 74.648438 C 20.304688 74.171875 20.332031 73.675781 20.597656 73.152344 C 20.734375 72.882812 20.941406 72.679688 21.222656 72.539062 C 21.5 72.402344 21.820312 72.347656 22.183594 72.367188 C 21.613281 71.789062 21.5 71.15625 21.847656 70.476562 C 22.117188 69.949219 22.523438 69.632812 23.070312 69.527344 C 23.617188 69.417969 24.21875 69.53125 24.871094 69.863281 C 25.257812 70.058594 25.578125 70.308594 25.824219 70.605469 C 26.070312 70.90625 26.214844 71.226562 26.261719 71.570312 C 26.308594 71.917969 26.246094 72.261719 26.066406 72.613281 L 25.296875 72.222656 C 25.453125 71.914062 25.460938 71.59375 25.324219 71.265625 C 25.183594 70.9375 24.925781 70.679688 24.550781 70.488281 C 24.132812 70.273438 23.746094 70.199219 23.398438 70.269531 C 23.046875 70.335938 22.792969 70.53125 22.628906 70.851562 C 22.277344 71.535156 22.523438 72.101562 23.367188 72.546875 L 24.089844 72.914062 L 23.765625 73.550781 L 23.046875 73.183594 C 22.652344 72.992188 22.3125 72.929688 22.023438 72.996094 C 21.738281 73.0625 21.515625 73.25 21.359375 73.558594 Z M 21.359375 73.558594 "/>
<path style=" stroke:none;fill-rule:nonzero;fill:rgb(255%,255%,255%);fill-opacity:1;" d="M 18.160156 67.738281 L 20.382812 69.351562 L 21.886719 68.332031 L 22.609375 68.855469 L 16.730469 72.6875 L 16.117188 72.242188 L 17.941406 65.464844 L 18.660156 65.984375 Z M 19.753906 69.773438 L 17.949219 68.464844 L 17.050781 71.601562 Z M 19.753906 69.773438 "/>
<path style=" stroke:none;fill-rule:nonzero;fill:rgb(255%,255%,255%);fill-opacity:1;" d="M 10.339844 66.070312 L 11.828125 67.5625 L 15.960938 63.429688 L 16.570312 64.035156 L 12.4375 68.167969 L 13.925781 69.65625 L 13.421875 70.160156 L 9.835938 66.574219 Z M 10.339844 66.070312 "/>
<path style=" stroke:none;fill-rule:nonzero;fill:rgb(255%,255%,255%);fill-opacity:1;" d="M 10.324219 62.863281 L 9.367188 61.542969 C 8.96875 60.984375 8.796875 60.449219 8.847656 59.9375 C 8.902344 59.425781 9.164062 58.996094 9.640625 58.648438 C 10.117188 58.300781 10.613281 58.183594 11.125 58.289062 C 11.636719 58.394531 12.09375 58.714844 12.496094 59.25 L 13.972656 61.28125 L 8.667969 65.132812 L 8.160156 64.433594 Z M 10.898438 62.445312 L 12.890625 60.996094 L 11.964844 59.71875 C 11.710938 59.371094 11.421875 59.167969 11.097656 59.109375 C 10.773438 59.050781 10.453125 59.132812 10.144531 59.359375 C 9.84375 59.574219 9.675781 59.839844 9.640625 60.152344 C 9.601562 60.460938 9.707031 60.789062 9.949219 61.136719 Z M 10.898438 62.445312 "/>
<path style=" stroke:none;fill-rule:nonzero;fill:rgb(255%,255%,255%);fill-opacity:1;" d="M 7.0625 53.875 C 7.71875 53.628906 8.3125 53.617188 8.84375 53.828125 C 9.375 54.042969 9.800781 54.464844 10.125 55.101562 C 10.476562 55.792969 10.511719 56.472656 10.230469 57.140625 C 9.945312 57.808594 9.390625 58.355469 8.558594 58.777344 L 8 59.0625 C 7.457031 59.339844 6.929688 59.484375 6.417969 59.503906 C 5.90625 59.519531 5.453125 59.402344 5.050781 59.160156 C 4.648438 58.917969 4.328125 58.5625 4.089844 58.09375 C 3.773438 57.472656 3.691406 56.886719 3.847656 56.335938 C 4.003906 55.785156 4.371094 55.324219 4.953125 54.949219 L 5.347656 55.722656 C 4.914062 56.027344 4.652344 56.34375 4.558594 56.675781 C 4.464844 57.003906 4.515625 57.367188 4.722656 57.769531 C 4.972656 58.261719 5.351562 58.554688 5.859375 58.652344 C 6.363281 58.746094 6.953125 58.621094 7.625 58.277344 L 8.191406 57.988281 C 8.824219 57.667969 9.261719 57.277344 9.5 56.820312 C 9.738281 56.367188 9.738281 55.898438 9.496094 55.421875 C 9.277344 54.996094 9.015625 54.71875 8.707031 54.585938 C 8.394531 54.457031 7.976562 54.476562 7.457031 54.648438 Z M 7.0625 53.875 "/>
<path style=" stroke:none;fill-rule:nonzero;fill:rgb(255%,255%,255%);fill-opacity:1;" d="M 7.683594 49.164062 L 5.253906 49.953125 L 5.722656 51.390625 L 8.566406 51.890625 L 8.851562 52.769531 L 5.726562 52.183594 C 5.671875 53.09375 5.238281 53.679688 4.421875 53.945312 C 3.824219 54.136719 3.300781 54.09375 2.847656 53.8125 C 2.390625 53.527344 2.046875 53.039062 1.820312 52.347656 L 1.175781 50.363281 L 7.414062 48.335938 L 7.679688 49.164062 Z M 4.152344 53.121094 C 4.53125 53 4.792969 52.785156 4.945312 52.476562 C 5.097656 52.164062 5.105469 51.800781 4.972656 51.378906 L 4.582031 50.171875 L 2.121094 50.96875 L 2.503906 52.140625 C 2.648438 52.585938 2.863281 52.890625 3.152344 53.058594 C 3.441406 53.226562 3.773438 53.246094 4.152344 53.121094 Z M 4.152344 53.121094 "/>
<path style=" stroke:none;fill-rule:nonzero;fill:rgb(255%,255%,255%);fill-opacity:1;" d="M 4.566406 37.421875 C 5.261719 37.5 5.796875 37.757812 6.175781 38.191406 C 6.550781 38.621094 6.738281 39.191406 6.738281 39.90625 C 6.738281 40.679688 6.460938 41.300781 5.90625 41.769531 C 5.347656 42.234375 4.605469 42.46875 3.675781 42.46875 L 3.046875 42.46875 C 2.4375 42.46875 1.898438 42.359375 1.4375 42.144531 C 0.976562 41.925781 0.621094 41.617188 0.375 41.214844 C 0.125 40.816406 0 40.355469 0 39.828125 C 0 39.132812 0.195312 38.574219 0.585938 38.15625 C 0.972656 37.734375 1.511719 37.488281 2.199219 37.421875 L 2.199219 38.289062 C 1.675781 38.363281 1.296875 38.527344 1.0625 38.78125 C 0.828125 39.03125 0.710938 39.378906 0.710938 39.828125 C 0.710938 40.382812 0.917969 40.816406 1.324219 41.132812 C 1.734375 41.441406 2.3125 41.597656 3.066406 41.597656 L 3.703125 41.597656 C 4.414062 41.597656 4.980469 41.449219 5.402344 41.152344 C 5.820312 40.855469 6.03125 40.441406 6.03125 39.90625 C 6.03125 39.425781 5.921875 39.058594 5.707031 38.804688 C 5.488281 38.546875 5.109375 38.375 4.566406 38.289062 Z M 4.566406 37.421875 "/>
<path style=" stroke:none;fill-rule:nonzero;fill:rgb(255%,255%,255%);fill-opacity:1;" d="M 6.546875 36.566406 L 0.0703125 35.539062 L 0.40625 33.421875 C 0.515625 32.722656 0.746094 32.214844 1.09375 31.910156 C 1.4375 31.597656 1.898438 31.488281 2.464844 31.578125 C 2.769531 31.628906 3.023438 31.757812 3.230469 31.964844 C 3.433594 32.175781 3.578125 32.4375 3.65625 32.753906 C 3.8125 32.417969 4.042969 32.171875 4.347656 32.015625 C 4.65625 31.851562 4.996094 31.800781 5.375 31.863281 C 5.957031 31.953125 6.382812 32.214844 6.65625 32.644531 C 6.929688 33.074219 7.011719 33.632812 6.902344 34.320312 Z M 3.652344 35.234375 L 5.984375 35.601562 L 6.207031 34.191406 C 6.269531 33.792969 6.214844 33.464844 6.046875 33.203125 C 5.878906 32.941406 5.609375 32.78125 5.25 32.722656 C 4.46875 32.597656 4.011719 32.960938 3.878906 33.808594 Z M 2.96875 35.125 L 3.171875 33.835938 C 3.230469 33.460938 3.183594 33.148438 3.035156 32.894531 C 2.882812 32.640625 2.648438 32.488281 2.328125 32.4375 C 1.96875 32.382812 1.695312 32.445312 1.503906 32.625 C 1.308594 32.808594 1.175781 33.109375 1.109375 33.535156 L 0.910156 34.796875 Z M 2.96875 35.125 "/>
<path style=" stroke:none;fill-rule:nonzero;fill:rgb(255%,255%,255%);fill-opacity:1;" d="M 8.457031 28.394531 L 6.03125 27.605469 L 5.5625 29.046875 L 7.570312 31.125 L 7.285156 32 L 5.101562 29.691406 C 4.523438 30.394531 3.824219 30.613281 3.007812 30.347656 C 2.414062 30.152344 2.015625 29.808594 1.816406 29.3125 C 1.609375 28.816406 1.621094 28.21875 1.847656 27.523438 L 2.492188 25.542969 L 8.726562 27.570312 Z M 3.277344 29.523438 C 3.652344 29.644531 3.992188 29.628906 4.296875 29.46875 C 4.605469 29.304688 4.824219 29.015625 4.964844 28.59375 L 5.359375 27.386719 L 2.898438 26.589844 L 2.519531 27.757812 C 2.375 28.203125 2.371094 28.578125 2.503906 28.882812 C 2.640625 29.1875 2.898438 29.402344 3.277344 29.523438 Z M 3.277344 29.523438 "/>
<path style=" stroke:none;fill-rule:nonzero;fill:rgb(255%,255%,255%);fill-opacity:1;" d="M 6.445312 21.304688 C 6.132812 21.148438 5.832031 21.136719 5.53125 21.269531 C 5.234375 21.402344 4.980469 21.671875 4.769531 22.078125 C 4.597656 22.421875 4.546875 22.757812 4.617188 23.085938 C 4.6875 23.414062 4.859375 23.648438 5.140625 23.789062 L 4.746094 24.558594 C 4.4375 24.398438 4.199219 24.175781 4.039062 23.878906 C 3.882812 23.582031 3.8125 23.25 3.832031 22.875 C 3.847656 22.5 3.949219 22.125 4.136719 21.757812 C 4.46875 21.105469 4.875 20.671875 5.351562 20.460938 C 5.828125 20.25 6.328125 20.273438 6.847656 20.539062 C 7.121094 20.679688 7.324219 20.886719 7.460938 21.164062 C 7.597656 21.445312 7.65625 21.765625 7.632812 22.128906 C 8.210938 21.558594 8.84375 21.445312 9.527344 21.792969 C 10.050781 22.0625 10.367188 22.46875 10.476562 23.015625 C 10.585938 23.5625 10.472656 24.164062 10.140625 24.816406 C 9.941406 25.203125 9.695312 25.519531 9.394531 25.769531 C 9.09375 26.015625 8.773438 26.160156 8.429688 26.207031 C 8.085938 26.253906 7.738281 26.1875 7.386719 26.011719 L 7.78125 25.238281 C 8.085938 25.398438 8.40625 25.40625 8.738281 25.265625 C 9.0625 25.128906 9.324219 24.871094 9.511719 24.496094 C 9.726562 24.074219 9.800781 23.691406 9.730469 23.34375 C 9.664062 22.992188 9.46875 22.734375 9.148438 22.570312 C 8.464844 22.222656 7.898438 22.46875 7.453125 23.308594 L 7.085938 24.03125 L 6.453125 23.710938 L 6.816406 22.992188 C 7.007812 22.597656 7.070312 22.257812 7.003906 21.96875 C 6.9375 21.683594 6.753906 21.460938 6.445312 21.304688 Z M 6.445312 21.304688 "/>
<path style=" stroke:none;fill-rule:nonzero;fill:rgb(255%,255%,255%);fill-opacity:1;" d="M 12.265625 18.105469 L 10.652344 20.328125 L 11.671875 21.832031 L 11.148438 22.554688 L 7.316406 16.675781 L 7.761719 16.0625 L 14.539062 17.886719 L 14.019531 18.605469 Z M 10.230469 19.699219 L 11.539062 17.894531 L 8.402344 16.996094 Z M 10.230469 19.699219 "/>
<path style=" stroke:none;fill-rule:nonzero;fill:rgb(255%,255%,255%);fill-opacity:1;" d="M 13.929688 10.285156 L 12.441406 11.773438 L 16.574219 15.90625 L 15.964844 16.515625 L 11.832031 12.382812 L 10.34375 13.867188 L 9.84375 13.367188 L 13.425781 9.78125 Z M 13.929688 10.285156 "/>
<path style=" stroke:none;fill-rule:nonzero;fill:rgb(255%,255%,255%);fill-opacity:1;" d="M 17.140625 10.269531 L 18.460938 9.308594 C 19.019531 8.914062 19.554688 8.742188 20.066406 8.792969 C 20.578125 8.84375 21.007812 9.109375 21.351562 9.585938 C 21.699219 10.0625 21.820312 10.558594 21.714844 11.070312 C 21.605469 11.582031 21.285156 12.039062 20.753906 12.441406 L 18.722656 13.917969 L 14.871094 8.613281 L 15.570312 8.105469 Z M 17.558594 10.84375 L 19.007812 12.835938 L 20.285156 11.90625 C 20.632812 11.65625 20.835938 11.367188 20.894531 11.042969 C 20.953125 10.71875 20.871094 10.398438 20.644531 10.089844 C 20.425781 9.789062 20.164062 9.621094 19.851562 9.585938 C 19.539062 9.546875 19.210938 9.648438 18.867188 9.894531 Z M 17.558594 10.84375 "/>
<path style=" stroke:none;fill-rule:nonzero;fill:rgb(255%,255%,255%);fill-opacity:1;" d="M 26.125 7.007812 C 26.371094 7.660156 26.382812 8.257812 26.171875 8.789062 C 25.957031 9.320312 25.535156 9.746094 24.898438 10.070312 C 24.207031 10.421875 23.527344 10.457031 22.859375 10.175781 C 22.191406 9.890625 21.648438 9.332031 21.222656 8.503906 L 20.9375 7.941406 C 20.660156 7.398438 20.515625 6.875 20.496094 6.363281 C 20.484375 5.851562 20.597656 5.394531 20.839844 4.996094 C 21.082031 4.59375 21.4375 4.269531 21.90625 4.03125 C 22.527344 3.714844 23.113281 3.636719 23.664062 3.792969 C 24.214844 3.949219 24.679688 4.316406 25.050781 4.898438 L 24.277344 5.292969 C 23.972656 4.859375 23.65625 4.597656 23.324219 4.503906 C 22.996094 4.40625 22.632812 4.460938 22.230469 4.667969 C 21.738281 4.917969 21.445312 5.296875 21.347656 5.804688 C 21.257812 6.308594 21.378906 6.898438 21.722656 7.570312 L 22.011719 8.132812 C 22.332031 8.769531 22.722656 9.203125 23.179688 9.445312 C 23.632812 9.683594 24.101562 9.683594 24.578125 9.441406 C 25.003906 9.222656 25.28125 8.957031 25.414062 8.648438 C 25.542969 8.335938 25.523438 7.921875 25.351562 7.402344 Z M 26.125 7.007812 "/>
<path style=" stroke:none;fill-rule:nonzero;fill:rgb(255%,255%,255%);fill-opacity:1;" d="M 30.839844 7.625 L 30.050781 5.199219 L 28.613281 5.664062 L 28.109375 8.511719 L 27.234375 8.796875 L 27.816406 5.671875 C 26.910156 5.617188 26.324219 5.179688 26.058594 4.363281 C 25.863281 3.769531 25.910156 3.246094 26.191406 2.792969 C 26.476562 2.332031 26.964844 1.992188 27.65625 1.765625 L 29.640625 1.121094 L 31.664062 7.359375 Z M 26.878906 4.097656 C 27.003906 4.472656 27.21875 4.738281 27.527344 4.890625 C 27.835938 5.042969 28.203125 5.050781 28.625 4.917969 L 29.832031 4.527344 L 29.03125 2.066406 L 27.863281 2.449219 C 27.417969 2.59375 27.113281 2.808594 26.945312 3.097656 C 26.777344 3.382812 26.757812 3.71875 26.878906 4.097656 Z M 26.878906 4.097656 "/>
<path style=" stroke:none;fill-rule:nonzero;fill:rgb(255%,255%,255%);fill-opacity:1;" d="M 42.582031 4.566406 C 42.5 5.257812 42.246094 5.796875 41.8125 6.175781 C 41.382812 6.550781 40.8125 6.738281 40.097656 6.738281 C 39.320312 6.738281 38.699219 6.460938 38.230469 5.902344 C 37.765625 5.347656 37.535156 4.605469 37.535156 3.675781 L 37.535156 3.042969 C 37.535156 2.433594 37.640625 1.898438 37.859375 1.4375 C 38.078125 0.972656 38.386719 0.621094 38.785156 0.375 C 39.183594 0.125 39.648438 0 40.171875 0 C 40.871094 0 41.429688 0.195312 41.847656 0.585938 C 42.269531 0.972656 42.511719 1.511719 42.582031 2.199219 L 41.714844 2.199219 C 41.636719 1.675781 41.472656 1.296875 41.222656 1.0625 C 40.972656 0.828125 40.625 0.710938 40.171875 0.710938 C 39.621094 0.710938 39.1875 0.914062 38.871094 1.324219 C 38.558594 1.730469 38.402344 2.3125 38.402344 3.066406 L 38.402344 3.703125 C 38.402344 4.414062 38.550781 4.980469 38.847656 5.398438 C 39.144531 5.820312 39.5625 6.03125 40.097656 6.03125 C 40.578125 6.03125 40.945312 5.921875 41.199219 5.707031 C 41.457031 5.488281 41.628906 5.105469 41.714844 4.566406 Z M 42.582031 4.566406 "/>
<path style=" stroke:none;fill-rule:nonzero;fill:rgb(255%,255%,255%);fill-opacity:1;" d="M 43.4375 6.492188 L 44.460938 0.015625 L 46.578125 0.351562 C 47.28125 0.460938 47.789062 0.691406 48.09375 1.035156 C 48.402344 1.382812 48.515625 1.84375 48.421875 2.410156 C 48.375 2.714844 48.246094 2.96875 48.039062 3.175781 C 47.828125 3.378906 47.566406 3.523438 47.25 3.601562 C 47.585938 3.753906 47.832031 3.984375 47.988281 4.292969 C 48.148438 4.597656 48.199219 4.941406 48.140625 5.320312 C 48.046875 5.902344 47.789062 6.328125 47.359375 6.601562 C 46.929688 6.875 46.371094 6.957031 45.683594 6.847656 Z M 44.769531 3.597656 L 44.402344 5.929688 L 45.8125 6.152344 C 46.207031 6.214844 46.539062 6.160156 46.796875 5.992188 C 47.0625 5.820312 47.222656 5.554688 47.28125 5.195312 C 47.402344 4.414062 47.042969 3.957031 46.195312 3.824219 Z M 44.878906 2.914062 L 46.167969 3.117188 C 46.542969 3.175781 46.855469 3.128906 47.105469 2.976562 C 47.363281 2.828125 47.515625 2.589844 47.566406 2.269531 C 47.621094 1.914062 47.558594 1.640625 47.375 1.449219 C 47.195312 1.25 46.890625 1.121094 46.46875 1.054688 L 45.207031 0.851562 Z M 44.878906 2.914062 "/>
<path style=" stroke:none;fill-rule:nonzero;fill:rgb(255%,255%,255%);fill-opacity:1;" d="M 51.609375 8.402344 L 52.398438 5.976562 L 50.957031 5.507812 L 48.878906 7.515625 L 48 7.230469 L 50.3125 5.046875 C 49.609375 4.46875 49.390625 3.769531 49.65625 2.953125 C 49.851562 2.359375 50.195312 1.960938 50.6875 1.757812 C 51.1875 1.554688 51.785156 1.566406 52.476562 1.792969 L 54.460938 2.4375 L 52.433594 8.671875 Z M 50.480469 3.222656 C 50.355469 3.597656 50.375 3.9375 50.535156 4.242188 C 50.699219 4.546875 50.988281 4.769531 51.40625 4.910156 L 52.613281 5.300781 L 53.414062 2.84375 L 52.246094 2.464844 C 51.800781 2.320312 51.425781 2.3125 51.117188 2.449219 C 50.816406 2.582031 50.601562 2.839844 50.480469 3.222656 Z M 50.480469 3.222656 "/>
<path style=" stroke:none;fill-rule:nonzero;fill:rgb(255%,255%,255%);fill-opacity:1;" d="M 58.695312 6.390625 C 58.855469 6.078125 58.867188 5.773438 58.730469 5.476562 C 58.601562 5.179688 58.332031 4.925781 57.921875 4.714844 C 57.578125 4.542969 57.242188 4.488281 56.914062 4.5625 C 56.589844 4.632812 56.355469 4.804688 56.214844 5.082031 L 55.441406 4.691406 C 55.601562 4.378906 55.828125 4.144531 56.121094 3.984375 C 56.417969 3.828125 56.753906 3.757812 57.128906 3.773438 C 57.503906 3.792969 57.875 3.894531 58.246094 4.082031 C 58.898438 4.414062 59.328125 4.820312 59.539062 5.296875 C 59.753906 5.773438 59.726562 6.273438 59.460938 6.792969 C 59.324219 7.0625 59.113281 7.269531 58.835938 7.40625 C 58.558594 7.542969 58.234375 7.601562 57.875 7.578125 C 58.445312 8.15625 58.554688 8.789062 58.207031 9.472656 C 57.941406 9.996094 57.535156 10.3125 56.988281 10.421875 C 56.4375 10.527344 55.839844 10.417969 55.1875 10.085938 C 54.796875 9.886719 54.480469 9.636719 54.230469 9.339844 C 53.988281 9.039062 53.839844 8.71875 53.792969 8.375 C 53.746094 8.03125 53.8125 7.683594 53.992188 7.332031 L 54.761719 7.726562 C 54.605469 8.03125 54.59375 8.351562 54.734375 8.679688 C 54.875 9.007812 55.132812 9.265625 55.503906 9.457031 C 55.925781 9.671875 56.308594 9.746094 56.65625 9.675781 C 57.007812 9.609375 57.265625 9.414062 57.429688 9.09375 C 57.777344 8.410156 57.53125 7.84375 56.691406 7.398438 L 55.96875 7.03125 L 56.292969 6.398438 L 57.011719 6.761719 C 57.40625 6.953125 57.746094 7.015625 58.03125 6.949219 C 58.316406 6.882812 58.539062 6.695312 58.695312 6.390625 Z M 58.695312 6.390625 "/>
<path style=" stroke:none;fill-rule:nonzero;fill:rgb(255%,255%,255%);fill-opacity:1;" d="M 61.898438 12.210938 L 59.675781 10.597656 L 58.167969 11.617188 L 57.449219 11.09375 L 63.328125 7.261719 L 63.941406 7.707031 L 62.113281 14.484375 L 61.398438 13.960938 Z M 60.304688 10.175781 L 62.105469 11.484375 L 63.007812 8.347656 Z M 60.304688 10.175781 "/>
<path style=" stroke:none;fill-rule:nonzero;fill:rgb(255%,255%,255%);fill-opacity:1;" d="M 69.71875 13.875 L 68.230469 12.386719 L 64.097656 16.519531 L 63.488281 15.910156 L 67.621094 11.777344 L 66.136719 10.289062 L 66.636719 9.785156 L 70.222656 13.371094 Z M 69.71875 13.875 "/>
<path style=" stroke:none;fill-rule:nonzero;fill:rgb(255%,255%,255%);fill-opacity:1;" d="M 69.734375 17.085938 L 70.691406 18.402344 C 71.085938 18.964844 71.257812 19.5 71.207031 20.011719 C 71.15625 20.523438 70.890625 20.953125 70.417969 21.296875 C 69.9375 21.644531 69.441406 21.765625 68.929688 21.660156 C 68.417969 21.550781 67.960938 21.230469 67.558594 20.695312 L 66.085938 18.667969 L 71.386719 14.8125 L 71.898438 15.511719 Z M 69.15625 17.503906 L 67.164062 18.953125 L 68.09375 20.230469 C 68.34375 20.578125 68.632812 20.78125 68.957031 20.835938 C 69.285156 20.898438 69.601562 20.816406 69.914062 20.589844 C 70.210938 20.371094 70.378906 20.109375 70.414062 19.796875 C 70.453125 19.484375 70.351562 19.15625 70.105469 18.8125 Z M 69.15625 17.503906 "/>
<path style=" stroke:none;fill-rule:nonzero;fill:rgb(255%,255%,255%);fill-opacity:1;" d="M 72.996094 26.070312 C 72.339844 26.3125 71.746094 26.328125 71.210938 26.117188 C 70.683594 25.902344 70.257812 25.480469 69.933594 24.84375 C 69.582031 24.152344 69.546875 23.472656 69.828125 22.800781 C 70.109375 22.136719 70.667969 21.589844 71.496094 21.167969 L 72.058594 20.882812 C 72.601562 20.605469 73.128906 20.460938 73.636719 20.441406 C 74.148438 20.425781 74.605469 20.542969 75.007812 20.785156 C 75.410156 21.027344 75.730469 21.382812 75.96875 21.851562 C 76.285156 22.472656 76.363281 23.058594 76.207031 23.609375 C 76.054688 24.160156 75.6875 24.621094 75.105469 24.996094 L 74.710938 24.222656 C 75.140625 23.917969 75.402344 23.601562 75.5 23.269531 C 75.59375 22.941406 75.539062 22.574219 75.335938 22.175781 C 75.085938 21.683594 74.707031 21.390625 74.199219 21.292969 C 73.691406 21.199219 73.105469 21.324219 72.433594 21.667969 L 71.867188 21.957031 C 71.234375 22.277344 70.796875 22.667969 70.558594 23.125 C 70.316406 23.578125 70.320312 24.042969 70.5625 24.519531 C 70.78125 24.949219 71.042969 25.226562 71.351562 25.355469 C 71.664062 25.488281 72.078125 25.46875 72.601562 25.296875 Z M 72.996094 26.070312 "/>
<path style=" stroke:none;fill-rule:nonzero;fill:rgb(255%,255%,255%);fill-opacity:1;" d="M 72.375 30.785156 L 74.804688 29.996094 L 74.335938 28.554688 L 71.488281 28.054688 L 71.203125 27.179688 L 74.332031 27.761719 C 74.386719 26.855469 74.820312 26.269531 75.636719 26.003906 C 76.230469 25.808594 76.757812 25.855469 77.210938 26.136719 C 77.667969 26.417969 78.011719 26.90625 78.234375 27.601562 L 78.878906 29.585938 L 72.644531 31.609375 Z M 75.90625 26.824219 C 75.527344 26.949219 75.261719 27.164062 75.109375 27.472656 C 74.960938 27.78125 74.949219 28.148438 75.085938 28.570312 L 75.476562 29.777344 L 77.933594 28.976562 L 77.554688 27.808594 C 77.410156 27.363281 77.195312 27.054688 76.90625 26.886719 C 76.617188 26.722656 76.285156 26.703125 75.90625 26.824219 Z M 75.90625 26.824219 "/>
<path style="fill:none;stroke-width:4;stroke-linecap:butt;stroke-linejoin:miter;stroke:rgb(255%,255%,255%);stroke-opacity:1;stroke-miterlimit:4;" d="M 156.46691 72.005375 L 156.46691 236.00232 " transform="matrix(0.307409,0,0,0.307409,-8.204734,-8.260068)"/>
<path style="fill:none;stroke-width:4;stroke-linecap:butt;stroke-linejoin:miter;stroke:rgb(255%,255%,255%);stroke-opacity:1;stroke-miterlimit:4;" d="M 236.000219 156.469012 L 72.003273 156.469012 " transform="matrix(0.307409,0,0,0.307409,-8.204734,-8.260068)"/>
</g>
</svg>